# xmcd CD database generated by RipIT
#
# Track frame offsets:
# 150
# 14192
# 27115
# 37298
# 49643
# 63328
# 77986
# 91248
# 105431
# 120094
# 132489
# 146602
# 164566
# 181716
# 202329
#
# Disc length: 2921 seconds
#
# Revision: 0
# Processed by: cddbd v1.5.2PL0 Copyright (c) Steve Scherf et al.
# Submitted via: RipIT 3.9.0 www.suwald.com/ripit/ripit.html on 2017-07-16 at 11:11
#
DISCID=d10b670f
DTITLE=Lyle Lovett - Greatest hits
DYEAR=2017
DGENRE=Bluegrass
TTITLE0=Farther down the line
TTITLE1=Cowboy man
TTITLE2=God will
TTITLE3=Why I don't know
TTITLE4=Give me back my heart
TTITLE5=She's no lady
TTITLE6=I loved you yesterday
TTITLE7=If I had a boat
TTITLE8=I married her just because she looks like you
TTITLE9=Stand by your man
TTITLE10=Nobody knows me
TTITLE11=If I were the man you wanted
TTITLE12=Don't touch my hat
TTITLE13=Private conversation
TTITLE14=Closing time
EXTD=
EXTT0=
EXTT1=
EXTT2=
EXTT3=
EXTT4=
EXTT5=
EXTT6=
EXTT7=
EXTT8=
EXTT9=
EXTT10=
EXTT11=
EXTT12=
EXTT13=
EXTT14=
PLAYORDER=
